<?xml version="1.0" encoding="utf-8"?>
<svg width="157" height="14" viewBox="0 0 157 14" fill="none" xmlns="http://www.w3.org/2000/svg">
<path d="M54.2081 4.93732C54.2081 4.03764 54.8881 3.37933 55.7654 3.37933C56.6427 3.37933 57.3226 4.05958 57.3226 4.93732C57.3226 5.83701 56.6427 6.49531 55.7654 6.49531C54.8881 6.49531 54.2081 5.81506 54.2081 4.93732ZM56.9498 2.15049C56.9498 3.05018 57.6297 3.70848 58.507 3.70848C59.3844 3.70848 60.0643 3.02824 60.0643 2.15049C60.0643 1.25081 59.3844 0.592502 58.507 0.592502C57.6297 0.592502 56.9498 1.25081 56.9498 2.15049ZM60.7223 0.241407V3.02824C62.8937 3.02824 64.6045 4.80566 64.6045 7.10973C64.6045 9.4138 62.8718 11.1912 60.7223 11.1912C58.5509 11.1912 56.8401 9.4138 56.8401 7.10973H53.8133C53.8133 10.9718 56.884 13.9781 60.7442 13.9781C64.6045 13.9781 67.6752 10.9498 67.6752 7.10973C67.6752 3.26961 64.5826 0.241407 60.7223 0.241407ZM151.381 10.8182V8.18494H156.295V5.52977H151.381V2.91849H156.777V0.263324H148.399V13.4733H156.865V10.8182H151.381ZM146.644 6.86833C146.644 10.6646 143.749 13.4733 139.669 13.4733H135.304V0.24138H139.669C143.749 0.24138 146.644 3.0721 146.644 6.86833ZM143.595 6.86833C143.595 4.60814 142.082 2.89655 139.888 2.89655H138.265V10.8182H139.888C142.104 10.8182 143.595 9.12851 143.595 6.86833ZM123.724 8.40438C123.724 9.91848 122.649 11.0595 121.157 11.0595C119.666 11.0595 118.591 9.94042 118.591 8.40438V0.285268H115.652V8.36049C115.652 11.4765 117.977 13.7586 121.157 13.7586C124.338 13.7586 126.663 11.4545 126.663 8.36049V0.285268H123.724V8.40438ZM106.594 8.6677H109.533C109.27 10.0282 108.063 11.0815 106.616 11.0815C104.993 11.0815 103.699 9.78682 103.699 7.87773V5.92476C103.699 4.05956 105.102 2.67711 107.054 2.67711C108.568 2.67711 109.928 3.51097 110.366 4.71786L113.108 3.75235C112.362 1.42633 109.884 0 107.054 0C103.457 0 100.803 2.41379 100.803 5.92476V7.87773C100.825 11.257 103.304 13.7586 106.374 13.7586C108.283 13.7586 109.971 12.7931 110.958 11.279V13.4953H113.568V6.14419H106.594V8.6677ZM80.5061 8.57995V0.526671H77.5671V8.64578C77.5671 10.1599 76.4923 11.3009 75.0009 11.3009C73.5094 11.3009 72.4347 10.1818 72.4347 8.64578V0.526671H69.4956V8.60189C69.4956 11.7179 71.8205 14 75.0009 14C78.1812 14 80.5061 11.6959 80.5061 8.57995ZM46.2902 13.7147H49.2512V8.68967L54.2081 0.504729H50.8743L47.7378 5.92478L44.6452 0.526671H41.3113L46.2683 8.7555L46.2902 13.7147ZM35.3436 0.241407H25.3201V2.89657H35.3436V0.241407ZM24.0479 10.7962H18.5646V8.14108H23.4777V5.50785H18.5646V2.89657H23.9602V0.241407H15.5817V13.4514H24.0479V10.7962ZM6.28199 13.7367C8.19019 13.7367 9.87905 12.7712 10.866 11.2571V13.4734H13.4761V6.12227H6.50132V8.66772H9.44038C9.17718 10.0282 7.97085 11.0815 6.52326 11.0815C4.90019 11.0815 3.60613 9.78684 3.60613 7.87776V5.92478C3.60613 4.05958 5.00986 2.67714 6.96192 2.67714C8.47532 2.67714 9.83518 3.51099 10.2738 4.71789L13.0155 3.75237C12.2698 1.4483 9.79132 2.82375e-05 6.93999 2.82375e-05C3.36486 2.82375e-05 0.710938 2.41382 0.710938 5.92478V7.87776C0.710938 11.2351 3.21133 13.7367 6.28199 13.7367ZM87.2396 10.3793L85.7043 8.7555L87.2177 7.10973L85.6824 5.48591L87.1958 3.84014L85.6604 2.21633L87.3493 0.482786H84.2786L82.6117 2.23827L84.147 3.86209L82.6337 5.50785L84.169 7.13168L82.6556 8.77744L84.1909 10.4013L82.6775 12.047L84.3006 13.7367H87.3932L85.7262 12.0251L87.2396 10.3793ZM132.256 6.47335C132.694 6.07836 133.44 5.42006 133.44 4.19122C133.44 2.98432 132.694 2.30408 132.256 1.90909C132.234 1.88715 132.234 1.88715 132.212 1.8652C131.992 1.62383 131.971 1.29467 131.949 1.14106V0.219437H128.966V1.44827C128.966 1.47022 128.966 1.47022 128.966 1.49216C128.966 2.69906 129.711 3.37931 130.15 3.77429C130.457 4.05956 130.457 4.0815 130.457 4.19122C130.457 4.30094 130.457 4.32288 130.15 4.60814C129.733 4.98118 129.031 5.61754 128.988 6.73666C128.988 6.75861 128.988 6.78055 128.988 6.8025C128.988 6.82444 128.988 6.82444 128.988 6.82444V6.84638C128.988 6.84638 128.988 6.89027 128.988 6.91221C129.031 8.03133 129.733 8.6677 130.15 9.04074C130.457 9.326 130.457 9.34795 130.457 9.45766C130.457 9.56738 130.457 9.58933 130.15 9.87459C129.711 10.2696 128.966 10.9279 128.966 12.1567C128.966 12.1787 128.966 12.1787 128.966 12.2006V13.4294H131.949V12.5078C131.949 12.3542 131.992 12.0251 132.212 11.7837C132.234 11.7617 132.234 11.7617 132.256 11.7398C132.694 11.3448 133.44 10.6865 133.44 9.45766C133.44 8.25077 132.694 7.57052 132.256 7.17554C131.971 6.93416 131.949 6.86833 131.949 6.8025C131.971 6.78055 131.992 6.73667 132.256 6.47335ZM28.8513 13.4514H31.8123V10.9937H28.8513V13.4514ZM31.8123 7.48277H28.8513V9.94045H31.8123V7.48277ZM31.8123 3.97181H28.8513V6.42948H31.8123V3.97181ZM94.9602 13.7147L91.3631 8.66772C93.1178 8.11913 94.346 6.58309 94.346 4.69594C94.346 2.3041 92.372 0.504729 89.8716 0.504729H88.1389V3.18184H89.762C90.6174 3.18184 91.2973 3.86209 91.2973 4.78372C91.2973 5.70535 90.6174 6.3856 89.762 6.3856H88.1389V8.93105L91.3631 13.7367L94.9602 13.7147Z" fill="#F25130"/>
</svg>
