<?xml version="1.0" encoding="utf-8"?>
<svg width="109" height="14" viewBox="0 0 109 14" fill="none" xmlns="http://www.w3.org/2000/svg">
<path d="M18.0621 6.05185C17.7119 5.29104 17.5304 4.89632 17.2853 4.30422C17.0593 4.89632 16.9829 5.07776 16.5564 6.09642L15.7223 8.14647H19.0043L18.0621 6.05185ZM14.7801 10.6836L13.6086 13.2684H10.1866L16.1457 0.716639H19.033L24.9889 13.2684H21.6178L20.3445 10.6836H14.7801ZM33.5138 6.1569C34.2109 6.1569 34.5006 6.11234 34.7871 5.95954C35.0111 5.83022 35.1976 5.64481 35.3282 5.42155C35.4588 5.19829 35.5291 4.94486 35.532 4.68622C35.5278 4.42783 35.4571 4.1749 35.3266 3.95185C35.1961 3.72879 35.0103 3.54317 34.7871 3.4129C34.5134 3.2601 34.2237 3.22827 33.5138 3.22827H29.3341V6.13144L33.5138 6.1569ZM29.3341 13.2684H26.189V0.716639H34.3797C35.8376 0.716639 36.6271 0.901271 37.372 1.3533C37.845 1.65335 38.234 2.06873 38.5024 2.56043C38.7708 3.05212 38.9098 3.60399 38.9063 4.16416C38.9063 5.65394 38.1328 6.76173 36.7194 7.34746C37.9641 7.78994 38.3461 8.48708 38.3747 10.448C38.4352 12.0142 38.5275 12.4694 38.9063 13.2748H35.4429C35.2137 12.5744 35.1691 12.2879 35.201 11.0847C35.201 9.26381 34.698 8.70036 33.0872 8.70036H29.3341V13.2684ZM53.6132 13.2684V0.716639H65.0985V3.26328H56.7583V5.61892H64.1276V8.16557H56.7583V10.7504H65.0985V13.2971L53.6132 13.2684ZM74.2155 13.2684H71.0704V3.25373H66.7252V0.70709H78.5448V3.25373H74.2155V13.2684ZM93.952 8.35975C93.0543 11.9314 90.6095 13.7236 86.554 13.7236C81.935 13.7236 79.0159 11.1547 79.0159 7.11508C79.0159 2.97678 82.0241 0.277344 86.6272 0.277344C88.8332 0.277344 90.5649 0.853521 91.9306 2.08546C92.8588 2.85786 93.5057 3.91547 93.7705 5.09368H90.3803C89.7437 3.50203 88.499 2.72212 86.6145 2.72212C84.0901 2.72212 82.3456 4.50159 82.3456 7.05459C82.3456 9.54394 84.0774 11.2788 86.554 11.2788C88.5595 11.2788 89.7596 10.3811 90.4885 8.35975H93.952ZM105.151 0.716639V5.60938H98.6824V0.716639H95.5373V13.2684H98.6824V8.14647H105.141V13.2684H108.283V0.716639H105.151ZM0 13.2684V0.716639H11.0142V3.26328H3.1451V5.61892H10.3616V8.16557H3.1451V13.2684H0ZM40.9723 13.2684V0.716639H51.9897V3.26328H44.1174V5.61892H51.3498V8.16557H44.1174V13.2684H40.9723Z" fill="black"/>
</svg>
