<?xml version="1.0" encoding="utf-8"?>
<svg width="79" height="18" viewBox="0 0 79 18" fill="none" xmlns="http://www.w3.org/2000/svg">
<path d="M51.076 6.63545C49.7717 5.48877 48.1967 4.92885 46.3752 4.92885C44.5538 4.92885 43.0048 5.48961 41.6988 6.63545C40.3946 7.75698 39.7316 9.31774 39.7316 11.3169C39.7316 13.316 40.3946 14.8759 41.6988 16.0226C43.0031 17.1441 44.5789 17.7049 46.3752 17.7049C48.1715 17.7049 49.7709 17.1441 51.076 16.0226C52.4054 14.8768 53.0684 13.3169 53.0684 11.3169C53.0684 9.3169 52.4045 7.75698 51.076 6.63545ZM43.9159 13.8768C43.2277 13.2188 42.8816 12.3646 42.8816 11.3169C42.8816 10.2691 43.2252 9.41497 43.9159 8.78128C44.6041 8.12328 45.4172 7.80644 46.3744 7.80644C47.3316 7.80644 48.1707 8.12328 48.8597 8.78128C49.5722 9.41497 49.9184 10.2683 49.9184 11.3169C49.9184 12.3655 49.5747 13.2188 48.8597 13.8768C48.1715 14.5105 47.3342 14.8273 46.3744 14.8273C45.4146 14.8273 44.6058 14.5105 43.9159 13.8768ZM57.7221 17.3629V0.632161H54.6216V17.3629H57.7221ZM67.7304 5.27V11.9455C67.7304 13.5541 66.8528 14.6203 65.1823 14.6203C63.5117 14.6203 62.6299 13.5549 62.6299 11.9455V5.27H59.5235V12.4577C59.5235 15.2422 61.2955 17.7041 65.1823 17.7041H65.2057C69.0691 17.7041 70.8377 15.1878 70.8377 12.4577V5.27H67.7296H67.7304ZM36.4307 5.27L33.3301 13.4619L30.2296 5.27H26.932L31.8792 17.3638H34.7836L39.7299 5.27H36.4298H36.4307ZM26.948 10.9757C26.948 9.22051 26.3822 7.78213 25.2749 6.63629C24.1668 5.48961 22.7418 4.92969 20.9941 4.92969C19.2464 4.92969 17.6714 5.53991 16.4158 6.73352C15.1845 7.92882 14.5709 9.43928 14.5709 11.3177C14.5709 13.1962 15.1853 14.7318 16.3915 15.9254C17.6228 17.1207 19.0989 17.7057 20.8457 17.7057C23.5297 17.7057 25.4241 16.5356 26.5783 14.1702L24.2665 12.8533C23.5054 14.3403 22.3964 15.0721 20.896 15.0721C19.0511 15.0721 17.746 13.9019 17.5491 12.0486H26.9471V10.9749L26.948 10.9757ZM20.8935 7.26998C22.6404 7.26998 23.7979 8.24482 24.0922 9.80558H17.5465C18.0151 8.3672 19.2934 7.26998 20.8935 7.26998ZM14.5709 17.3638L10.4108 10.1476C13.0428 9.19703 14.3471 7.53905 14.3471 5.12499C14.3496 2.17448 11.9858 0.296875 8.2214 0.296875H0.865234V17.3629H4.11331V10.4393H6.8702L10.8559 17.3638H14.5709ZM8.2214 3.12417C10.1409 3.12417 11.1007 3.8794 11.1007 5.36723C11.1007 6.85506 10.1392 7.6103 8.2214 7.6103H4.11331V3.12417H8.2214ZM76.0941 17.7041C74.0983 17.7041 72.4798 16.0997 72.4798 14.1199V2.00264H75.5795V5.27419H78.2383V7.76117H75.5795V13.9229C75.5795 14.5038 76.0539 14.9732 76.6406 14.9732H78.2374V17.7041H76.0933H76.0941Z" fill="black"/>
</svg>
