<?xml version="1.0" encoding="utf-8"?>
<svg width="90" height="24" viewBox="0 0 90 24" fill="none" xmlns="http://www.w3.org/2000/svg">
<path d="M23.6914 17.7182V0.269531H26.4086V7.14424C27.2597 5.86751 28.5364 5.24551 30.2387 5.24551C31.6792 5.24551 32.8249 5.67109 33.6106 6.52224C34.3963 7.3734 34.7892 8.58465 34.7892 10.1233V17.7182H32.072V10.5161C32.072 8.51918 31.1881 7.53708 29.4203 7.53708C28.5364 7.53708 27.8162 7.79898 27.227 8.3555C26.6704 8.87929 26.3758 9.63223 26.3758 10.6143V17.7509L23.6914 17.7182Z" fill="#323232"/>
<path d="M47.6216 16.2129C46.4103 17.4241 44.9044 18.0134 43.0712 18.0134C41.2379 18.0134 39.732 17.4241 38.5208 16.2129C37.3095 15.0016 36.6875 13.463 36.6875 11.6298C36.6875 9.76376 37.3095 8.25787 38.5208 7.04661C39.732 5.83535 41.2379 5.24609 43.0712 5.24609C44.9044 5.24609 46.4103 5.83535 47.6216 7.04661C48.8328 8.25787 49.4221 9.76376 49.4221 11.6298C49.4221 13.4957 48.8328 15.0344 47.6216 16.2129ZM40.5177 14.707C41.1724 15.4599 42.0236 15.8528 43.1039 15.8528C44.1842 15.8528 45.0354 15.4599 45.6901 14.707C46.3448 13.9541 46.6722 12.9392 46.6722 11.6298C46.6722 10.353 46.3448 9.33818 45.6901 8.58524C45.0354 7.83229 44.1842 7.43945 43.1366 7.43945C42.0563 7.43945 41.2052 7.79956 40.5504 8.5525C39.8957 9.30544 39.5683 10.3203 39.5683 11.597C39.5356 12.9065 39.863 13.9541 40.5177 14.707Z" fill="#323232"/>
<path d="M55.7088 18.0479C53.2208 18.0479 51.9769 16.7057 51.9769 14.0213V7.83401H50.0781V5.54244H52.0423L52.6643 1.94141H54.694V5.54244H59.539V7.83401H54.694V13.923C54.694 15.0361 55.1196 15.5926 55.938 15.5926C56.7237 15.5926 57.4111 14.9051 58.0331 13.4975L60.1283 14.5778C59.0807 16.9021 57.6076 18.0479 55.7088 18.0479Z" fill="#323232"/>
<path d="M60.981 23.3162C59.7697 23.3162 58.7876 22.9888 58.002 22.3013L59.0168 20.1734C59.5078 20.73 60.0316 21.0246 60.5882 21.0246C61.3411 21.0246 61.7339 20.5336 61.7339 19.5842V5.54014H64.4511V19.5842C64.4511 20.8937 64.1237 21.843 63.469 22.3995C62.8142 23.0215 61.9958 23.3162 60.981 23.3162ZM63.0761 3.47773C62.6178 3.47773 62.1923 3.31405 61.8649 3.01942C61.7012 2.85573 61.5703 2.69205 61.5048 2.49563C61.4066 2.29921 61.3738 2.07005 61.4066 1.87363C61.4066 1.64447 61.4393 1.44805 61.5375 1.25163C61.6357 1.05521 61.7339 0.858792 61.8976 0.727846C62.225 0.433215 62.6506 0.269531 63.1089 0.269531C63.5672 0.269531 63.9928 0.433215 64.3201 0.727846C64.4838 0.891529 64.6148 1.05521 64.6802 1.25163C64.7785 1.44805 64.8112 1.67721 64.8112 1.87363C64.8112 2.10279 64.7785 2.29921 64.6802 2.49563C64.582 2.69205 64.4838 2.85573 64.3201 3.01942C64.1565 3.1831 63.96 3.28131 63.7636 3.37952C63.5345 3.44499 63.3053 3.51047 63.0761 3.47773Z" fill="#323232"/>
<path d="M71.1603 18.0447C69.7854 18.0447 68.6396 17.6846 67.7885 16.9971C66.9373 16.3096 66.5117 15.3602 66.5117 14.2145C66.5117 13.1342 66.97 12.2503 67.8539 11.4973C68.7378 10.7444 69.8836 10.3843 71.2258 10.3843C72.6007 10.3843 73.7793 10.8426 74.7286 11.7265V10.2533C74.7286 9.36943 74.4995 8.7147 74.0739 8.22365C73.6156 7.7326 72.9936 7.50344 72.1752 7.50344C70.5056 7.50344 69.4908 8.35459 69.0979 10.0242L66.6099 9.50038C66.9373 8.19091 67.592 7.17607 68.6069 6.42313C69.589 5.67018 70.833 5.27734 72.3061 5.27734C73.9102 5.27734 75.1869 5.70292 76.1036 6.55408C77.0202 7.40523 77.5112 8.64922 77.5112 10.2533V17.75H74.8596V16.2114C73.943 17.4227 72.7317 18.0447 71.1603 18.0447ZM71.6841 16.015C72.8954 16.015 73.9102 15.4257 74.7614 14.2145V13.8216C73.9102 12.8068 72.8954 12.3157 71.6841 12.3157C70.9966 12.3157 70.4074 12.4794 69.9818 12.8395C69.7854 13.0032 69.6217 13.1996 69.4908 13.4288C69.3926 13.6579 69.3271 13.9198 69.3271 14.1817C69.3271 14.4436 69.3598 14.7055 69.4908 14.9347C69.589 15.1638 69.7527 15.3602 69.9818 15.5239C70.3747 15.8513 70.9639 16.015 71.6841 16.015Z" fill="#323232"/>
<path d="M80.0977 17.7158V5.53775H82.7493V7.6329C83.4041 6.09427 84.5826 5.30859 86.2194 5.30859C87.2015 5.30859 87.9872 5.63596 88.6419 6.25796C89.2967 6.87996 89.5913 7.76385 89.5913 8.81142C89.5913 9.46615 89.4604 10.0882 89.2639 10.7102L86.7759 10.4483C86.8414 10.1209 86.8741 9.79352 86.8741 9.43342C86.8741 8.18942 86.3504 7.53469 85.3028 7.53469C84.6153 7.53469 83.9933 7.89479 83.535 8.64774C83.044 9.40068 82.8148 10.3828 82.8148 11.594V17.6503H80.0977V17.7158Z" fill="#323232"/>
<path d="M6.76749 7.40613C8.79717 6.29309 11.5471 4.75446 11.5471 0.269531H8.17517C8.17517 2.75752 6.96391 3.44499 5.09792 4.45983C3.06824 5.57288 0.318359 7.1115 0.318359 11.5964H3.6575C3.69024 9.10844 4.9015 8.45371 6.76749 7.40613Z" fill="#FF3C00"/>
<path d="M12.5638 6.39453C12.5638 8.88252 11.3526 9.56999 9.48659 10.5848C7.45691 11.6979 4.70703 13.2365 4.70703 17.7214H8.04617C8.04617 15.2334 9.25743 14.546 11.1234 13.5311C13.1531 12.4181 15.903 10.8795 15.903 6.39453H12.5638Z" fill="#FF3C00"/>
</svg>
