<?xml version="1.0" encoding="utf-8"?>
<svg width="84" height="28" viewBox="0 0 84 28" fill="none" xmlns="http://www.w3.org/2000/svg">
<g clip-path="url(#clip0_107_2)">
<path d="M11.8228 6.20078H0.248032V9.92125H7.85433C8.35039 9.92125 8.6811 10.3346 8.6811 10.748V17.2795H7.02756C6.5315 17.2795 6.20079 16.8661 6.20079 16.4527V11.7401H2.97638C1.32283 11.7401 0 13.063 0 14.7165V18.0236C0 19.6772 1.32283 21 2.97638 21H14.7992V9.17715C14.7992 7.52361 13.4764 6.20078 11.8228 6.20078Z" fill="#35B454"/>
<path d="M25.9606 17.2795H24.3071C23.811 17.2795 23.4803 16.8661 23.4803 16.4528V6.20079H20.2559C18.6024 6.20079 17.2795 7.52362 17.2795 9.17717V18.0236C17.2795 19.6772 18.6024 21 20.2559 21H32.0787V0H25.878L25.9606 17.2795Z" fill="#35B454"/>
<path d="M43.2402 17.2795H41.5866C41.0905 17.2795 40.7598 16.8661 40.7598 16.4527V6.20078H34.5591V18.0236C34.5591 19.6772 35.8819 21 37.5354 21H43.2402V22.8189H34.8071V27.1181H46.4646C48.1181 27.1181 49.4409 25.7953 49.4409 24.1417V6.20078H43.2402V17.2795Z" fill="#35B454"/>
<path d="M63.7441 6.20078H51.8386V18.0236C51.8386 19.6772 53.1614 21 54.815 21H66.4724V17.2795H58.8661C58.3701 17.2795 58.0394 16.8661 58.0394 16.4527V9.92125H59.6929C60.189 9.92125 60.5197 10.3346 60.5197 10.748V15.4606H63.7441C65.3976 15.4606 66.7205 14.1378 66.7205 12.4842V9.17715C66.7205 7.52361 65.3976 6.20078 63.7441 6.20078Z" fill="#35B454"/>
<path d="M81.0236 6.20078H69.2008V21H75.4016V9.92125H77.0551C77.5512 9.92125 77.8819 10.3346 77.8819 10.748V21H84.0827V9.17715C84 7.52361 82.6772 6.20078 81.0236 6.20078Z" fill="#35B454"/>
</g>
<defs>
<clipPath id="clip0_107_2">
<rect width="84" height="27.2008" fill="white"/>
</clipPath>
</defs>
</svg>
