<?xml version="1.0" encoding="utf-8"?>
<svg width="103" height="45" viewBox="0 0 103 45" fill="none" xmlns="http://www.w3.org/2000/svg">
<g clip-path="url(#clip0_103_2)">
<path d="M0.544922 14.6758H3.50002L6.26174 25.8935H6.30557L9.04478 14.6758H11.983L7.98216 30.3723H4.56603L0.544922 14.6758Z" fill="#432129"/>
<path d="M13.3926 19.7173C13.3926 15.8492 15.438 14.457 18.3481 14.457C21.2628 14.457 23.3071 15.8491 23.3071 19.7173V25.3284C23.3071 29.1977 21.2628 30.5876 18.3481 30.5876C15.438 30.5876 13.3926 29.1978 13.3926 25.3284V19.7173ZM16.396 25.7186C16.396 27.4593 17.154 27.9338 18.3481 27.9338C19.5457 27.9338 20.3058 27.4593 20.3058 25.7186V19.3237C20.3058 17.5875 19.5457 17.1096 18.3481 17.1096C17.154 17.1096 16.396 17.5875 16.396 19.3237V25.7186Z" fill="#432129"/>
<path d="M25.7422 30.3723V14.6758H28.7423V27.7208H33.5674V30.3723H25.7422Z" fill="#432129"/>
<path d="M35.1309 19.7173C35.1309 15.8492 37.1729 14.457 40.0853 14.457C42.9999 14.457 45.0408 15.8491 45.0408 19.7173V25.3284C45.0408 29.1977 42.9999 30.5876 40.0853 30.5876C37.1729 30.5876 35.1309 29.1978 35.1309 25.3284V19.7173ZM38.1287 25.7186C38.1287 27.4593 38.8888 27.9338 40.0853 27.9338C41.2806 27.9338 42.0419 27.4593 42.0419 25.7186V19.3237C42.0419 17.5875 41.2806 17.1096 40.0853 17.1096C38.8888 17.1096 38.1287 17.5875 38.1287 19.3237V25.7186Z" fill="#432129"/>
<path d="M56.566 14.6758V17.3251H53.0678V30.3723H50.0677V17.3251H46.5684V14.6758H56.566Z" fill="#432129"/>
<path d="M58.3516 30.3723V14.6758H66.5704V17.3251H61.3517V20.938H65.3312V23.5895H61.3517V27.7208H66.7863V30.3723H58.3516Z" fill="#432129"/>
<path d="M79.6332 30.3723H76.6758L73.9118 19.1535H73.8725L71.131 30.3723H68.1973L72.1981 14.6758H75.6087L79.6332 30.3723Z" fill="#432129"/>
<path d="M95.218 18.3231L91.5545 21.9855L87.8887 18.3231L91.5545 14.6562L95.218 18.3231Z" fill="#ED164A"/>
<path d="M95.218 3.66466L91.5545 7.32932L87.8887 3.66466L91.5545 0L95.218 3.66466Z" fill="#ED164A"/>
<path d="M102.546 10.9917L98.8826 14.6552L95.2168 10.9917L98.8826 7.32812L102.546 10.9917Z" fill="#ED164A"/>
<path d="M87.886 10.9917L84.2224 14.6552L80.5566 10.9917L84.2224 7.32812L87.886 10.9917Z" fill="#ED164A"/>
<path d="M85.0357 15.471V13.8428L84.2227 14.6558L85.0357 15.471ZM85.8509 16.2851L86.6661 17.0993V12.2146L85.8509 13.0298V16.2851ZM87.4802 11.4015V17.9156L87.8862 18.3226L88.2921 17.9156V11.4015L87.8862 10.9922L87.4802 11.4015ZM90.7345 13.8428V15.471L91.552 14.6558L90.7345 13.8428ZM89.1073 17.0992L89.9226 16.2851V13.0297L89.1073 12.2145V17.0992Z" fill="#ED164A"/>
<path d="M92.364 8.1406V6.51463L91.5488 7.32985L92.364 8.1406ZM93.1781 8.95587L93.9934 9.77001V4.88419L93.1781 5.70054V8.95587ZM94.8064 4.07226V10.5852L95.2146 10.9923L95.6205 10.5852V4.07226L95.2146 3.66406L94.8064 4.07226ZM98.0629 6.51463V8.1406L98.8781 7.32985L98.0629 6.51463ZM96.4346 9.76996L97.251 8.95582V5.70049L96.4346 4.88414V9.76996Z" fill="#ED164A"/>
<path d="M92.364 15.471V13.8428L91.5488 14.6558L92.364 15.471ZM93.1781 16.2851L93.9934 17.0993V12.2146L93.1781 13.0298V16.2851ZM94.8064 11.4015V17.9156L95.2146 18.3226L95.6205 17.9156V11.4015L95.2146 10.9922L94.8064 11.4015ZM98.0629 13.8428V15.471L98.8781 14.6558L98.0629 13.8428ZM96.4346 17.0992L97.251 16.2851V13.0297L96.4346 12.2145V17.0992Z" fill="#ED164A"/>
<path d="M85.0357 8.1406V6.51463L84.2227 7.32985L85.0357 8.1406ZM85.8509 8.95587L86.6661 9.77001V4.88419L85.8509 5.70054V8.95587ZM87.4802 4.07226V10.5852L87.8862 10.9923L88.2921 10.5852V4.07226L87.8862 3.66406L87.4802 4.07226ZM90.7345 6.51463V8.1406L91.552 7.32985L90.7345 6.51463ZM89.1073 9.76996L89.9226 8.95582V5.70049L89.1073 4.88414V9.76996Z" fill="#ED164A"/>
</g>
<defs>
<clipPath id="clip0_103_2">
<rect width="103" height="31" fill="white"/>
</clipPath>
</defs>
</svg>
