<?xml version="1.0" encoding="UTF-8"?>
<svg width="78" height="18" viewBox="0 0 78 18" fill="none" xmlns="http://www.w3.org/2000/svg">
<mask id="mask0_101_13" style="mask-type:luminance" maskUnits="userSpaceOnUse" x="0" y="0" width="78" height="18">
<path d="M77.4834 0H0V17.5434H77.4834V0Z" fill="white"/>
</mask>
<g mask="url(#mask0_101_13)">
<path d="M42.936 0.2624H47.686L45.296 17.3102H40.5457L42.936 0.2624ZM36.9471 0.2624L33.7418 10.0831L32.3435 0.2624H29.0212L24.8239 10.0538L24.2998 0.263201H19.6954L21.2984 17.311H25.1163L29.837 6.5291L31.4977 17.311H35.2571L41.4646 0.2624H36.9471ZM76.828 10.1708H65.549C65.608 12.3856 66.934 13.8425 68.886 13.8425C70.359 13.8425 71.524 13.0552 72.427 11.5545L76.234 13.2855C74.926 15.8636 72.168 17.5434 68.77 17.5434C64.137 17.5434 61.062 14.4251 61.062 9.4128C61.062 3.9049 64.675 0 69.775 0C74.263 0 77.09 3.0306 77.09 7.752C77.09 8.5385 77.002 9.3251 76.828 10.1708ZM72.603 6.9063C72.603 4.9253 71.495 3.6717 69.718 3.6717C67.881 3.6717 66.366 4.9831 65.957 6.9063H72.603ZM4.8478 5.3997L0 11.0662H8.6577L9.6299 8.3945H5.9209L8.1869 5.7732L8.1942 5.7038L6.7206 3.1666H13.352L8.2118 17.311H11.7292L17.9367 0.2617H1.9005L4.8486 5.399L4.8478 5.3997ZM55.408 3.6717C57.083 3.6717 58.551 4.573 59.834 6.1175L60.507 1.3114C59.314 0.502901 57.696 0 55.554 0C51.3 0 48.91 2.4919 48.91 5.6534C48.91 7.8463 50.134 9.1869 52.145 10.0538L53.106 10.491C54.898 11.2563 55.379 11.6349 55.379 12.4434C55.379 13.2811 54.571 13.8132 53.34 13.8132C51.306 13.8206 49.66 12.7789 48.422 11.0012L47.735 15.898C49.146 16.9732 50.955 17.5434 53.339 17.5434C57.383 17.5434 59.867 15.2116 59.867 11.977C59.867 9.7768 58.891 8.3638 56.428 7.2564L55.379 6.7608C53.922 6.1124 53.427 5.7557 53.427 5.0415C53.427 4.2696 54.105 3.6717 55.408 3.6717Z" fill="#163300"/>
</g>
</svg>
