<?xml version="1.0" encoding="utf-8"?>
<svg width="83" height="38" viewBox="0 0 83 38" fill="none" xmlns="http://www.w3.org/2000/svg">
<g clip-path="url(#clip0_103_2)">
<path fill-rule="evenodd" clip-rule="evenodd" d="M0.804688 17.045C0.804688 11.9707 4.76951 7.75805 10.2816 7.75805C12.9893 7.75805 14.8266 8.42824 16.5673 9.57714C16.9541 9.86437 17.2442 10.3431 17.2442 10.8218C17.2442 11.6835 16.5673 12.3537 15.6002 12.3537C15.2134 12.3537 14.8266 12.1622 14.6332 11.9707C13.4728 11.109 12.2156 10.5346 10.1849 10.5346C6.80027 10.5346 4.286 13.4068 4.286 16.8535V16.9493C4.286 20.5875 6.80027 23.364 10.475 23.364C12.2156 23.364 13.7629 22.7895 14.9233 22.0236V18.6726H11.3453C10.5717 18.6726 9.89477 18.0982 9.89477 17.3322C9.89477 16.5663 10.5717 15.9918 11.3453 15.9918H16.2772C17.1475 15.9918 17.9211 16.662 17.9211 17.6195V22.4065C17.9211 23.2682 17.5343 23.9384 16.7607 24.4171C15.2134 25.4703 12.9893 26.332 10.2816 26.332C4.5761 26.2362 0.804688 22.3108 0.804688 17.045ZM20.8222 8.71546C20.8222 7.85379 21.4991 7.18359 22.3695 7.18359C23.2398 7.18359 24.0134 7.85379 24.0134 8.71546V24.5129C24.0134 25.3745 23.3365 26.0447 22.3695 26.0447C21.4991 26.0447 20.8222 25.3745 20.8222 24.5129V8.71546ZM26.431 19.3428C26.431 15.4174 29.5255 12.2579 33.7804 12.2579C38.0353 12.2579 41.1298 15.4174 41.1298 19.2471V19.3428C41.1298 23.1725 38.0353 26.332 33.6837 26.332C29.5255 26.2362 26.431 23.1725 26.431 19.3428ZM38.0353 19.3428C38.0353 16.9493 36.2947 14.9387 33.7804 14.9387C31.2661 14.9387 29.6222 16.8535 29.6222 19.2471V19.3428C29.6222 21.6406 31.3628 23.6512 33.8771 23.6512C36.3914 23.5554 38.0353 21.6406 38.0353 19.3428ZM49.0595 26.2362H48.8661C47.9958 26.2362 47.4155 25.6618 47.0287 24.8958L42.387 14.6515C42.2903 14.46 42.1936 14.1727 42.1936 13.8855C42.1936 13.1196 42.8705 12.4494 43.7408 12.4494C44.6111 12.4494 45.0947 12.9281 45.2881 13.5983L48.8661 22.5023L52.4441 13.5026C52.6375 12.9281 53.121 12.4494 53.8946 12.4494C54.765 12.4494 55.4419 13.1196 55.4419 13.8855C55.4419 14.1727 55.3452 14.46 55.2485 14.6515L50.8968 24.8958C50.51 25.6618 49.9298 26.2362 49.0595 26.2362ZM56.7957 19.3428C56.7957 15.4174 59.8902 12.2579 64.1452 12.2579C68.4001 12.2579 71.4946 15.4174 71.4946 19.2471V19.3428C71.4946 23.1725 68.4001 26.332 64.0485 26.332C59.8902 26.2362 56.7957 23.1725 56.7957 19.3428ZM68.4001 19.3428C68.4001 16.9493 66.6594 14.9387 64.1452 14.9387C61.6309 14.9387 59.9869 16.8535 59.9869 19.2471V19.3428C59.9869 21.6406 61.7276 23.6512 64.2419 23.6512C66.7561 23.5554 68.4001 21.6406 68.4001 19.3428Z" fill="#0DA689"/>
<path fill-rule="evenodd" clip-rule="evenodd" d="M76.8101 0C73.4255 0 70.6211 2.68077 70.6211 6.03174C70.6211 7.27638 71.0079 8.52102 71.7815 9.57418L71.9749 9.76567L75.1661 14.1698C75.1661 14.1698 75.5529 14.84 76.4233 14.84H77.1969C78.0672 14.84 78.454 14.1698 78.454 14.1698L81.6452 9.76567L81.8386 9.57418C82.6123 8.52102 82.9991 7.37212 82.9991 6.03174C82.9991 2.68077 80.2914 0 76.8101 0ZM79.4211 7.85083L79.2277 8.04231L76.8101 11.2975L74.3925 8.04231L74.2958 7.85083C73.909 7.37212 73.7156 6.70193 73.7156 6.03174C73.7156 4.30838 75.1661 2.968 76.9068 2.968C78.6474 2.968 80.098 4.30838 80.098 6.03174C80.0013 6.70193 79.8079 7.27638 79.4211 7.85083ZM75.0694 17.6165C75.0694 16.6591 75.8431 15.9889 76.8101 15.9889C77.7771 15.9889 78.5507 16.7548 78.5507 17.6165C78.5507 18.4782 77.7771 19.2441 76.8101 19.2441C75.8431 19.2441 75.0694 18.4782 75.0694 17.6165Z" fill="#F6C45D"/>
</g>
<defs>
<clipPath id="clip0_103_2">
<rect width="83" height="27" fill="white"/>
</clipPath>
</defs>
</svg>
