<?xml version="1.0" encoding="utf-8"?>
<svg width="82" height="16" viewBox="0 0 82 16" fill="none" xmlns="http://www.w3.org/2000/svg">
<path d="M47.1532 12.1331H42.0421V9.33663H47.1558C47.9967 9.35 48.6754 9.96341 48.6754 10.7295C48.6754 11.4956 47.9939 12.133 47.153 12.133L47.1532 12.1331ZM42.0419 3.93401H47.0651C47.7521 3.94203 48.3346 4.45901 48.3346 5.13669C48.3346 5.81169 47.7246 6.3501 47.0349 6.34205H42.042L42.0419 3.93401ZM50.0409 7.84477C50.9861 7.19655 51.3434 6.12244 51.3434 4.94126C51.3434 2.71806 49.4226 0.93675 47.0678 0.93675H38.5384V15.1305H47.403V15.136C49.8926 15.136 51.9645 13.2637 51.9645 10.9707C51.9645 9.47608 51.0413 8.36973 50.041 7.84472L50.0409 7.84477ZM63.195 0.904451V8.88398C63.195 11.3242 61.7332 12.3475 59.9361 12.3475C58.1362 12.3475 56.6853 11.327 56.6853 8.88673V0.904451H53.0553V8.90798C53.0553 14.0132 56.1329 15.5 59.9361 15.5C63.7418 15.5 66.8223 14.0134 66.8223 8.90798V0.904451H63.195ZM75.9315 6.43572C72.9939 5.81429 72.0021 5.53841 72.0021 4.63036C72.0021 3.82946 73.0656 3.42501 74.7446 3.42501C76.3301 3.42501 78.2453 4.08394 79.3692 4.74019L80.5151 1.85268C78.8114 1.1616 76.7614 0.5 74.0521 0.5C70.4989 0.5 68.2815 2.52501 68.2815 5.00002C68.2815 7.4777 70.1089 8.56778 73.7304 9.31528C76.5388 9.89386 77.3 10.2421 77.3 11.0939C77.3 11.9456 76.1733 12.259 74.6509 12.259C72.6807 12.259 70.7847 11.6189 68.9986 10.8715L67.9187 13.6865C70.0538 14.6508 72.2712 15.4249 74.9149 15.4249C79.3197 15.4249 81.1168 13.3731 81.1168 10.9812C81.1168 8.85438 79.6055 7.21517 75.9315 6.43567L75.9315 6.43572ZM7.63922 0.936651L0.283203 15.1277L4.65239 15.1302L5.75154 12.848H10.7691L9.20829 9.73828H7.22708L9.09288 5.85702L13.7916 15.1303H18.1719L10.5301 0.93675L7.63922 0.936651ZM37.1946 5.65642C37.1946 3.07166 35.3755 0.974149 31.6357 0.974149H24.0816V15.1679L27.5824 15.1654V3.97191H31.8772C33.1468 3.97191 33.6743 4.73799 33.6743 5.64869C33.6743 6.56209 33.1193 7.29335 31.8498 7.29335H28.8463L33.3911 15.1656H36.9853C36.9853 15.1656 33.8746 10.0201 33.8912 10.0174C36.1363 9.3369 37.1943 7.67885 37.1943 5.65659L37.1946 5.65642ZM18.9209 15.1361H22.5425V0.944826H18.9209V15.1361Z" fill="#00205B"/>
</svg>
